<svg width="137" height="32" fill="none" xmlns="http://www.w3.org/2000/svg"><g clip-path="url(#clip0_15_43)"><rect opacity=".3" width="22" height="22" rx="4" fill="#191919"/><rect x="10" y="10" width="22" height="22" rx="4" fill="#143E95"/><path d="M136.142 15.313l-1.875.204a1.513 1.513 0 00-.278-.534 1.383 1.383 0 00-.523-.404 1.908 1.908 0 00-.807-.153c-.428 0-.788.093-1.08.278-.287.186-.429.427-.426.722a.756.756 0 00.279.62c.193.159.511.29.954.392l1.489.318c.826.178 1.439.46 1.841.846.405.387.61.892.613 1.517a2.369 2.369 0 01-.482 1.455c-.315.416-.752.742-1.313.977-.561.235-1.205.352-1.932.352-1.068 0-1.928-.223-2.579-.67-.652-.45-1.04-1.078-1.165-1.88l2.006-.194c.091.394.284.691.579.892.296.2.68.301 1.154.301.488 0 .88-.1 1.176-.3.299-.202.449-.45.449-.745a.776.776 0 00-.29-.62c-.19-.162-.485-.287-.887-.375L131.557 18c-.837-.174-1.457-.468-1.858-.88-.402-.417-.601-.944-.597-1.58-.004-.538.142-1.004.438-1.398.299-.398.714-.704 1.244-.92.534-.22 1.15-.33 1.847-.33 1.022 0 1.827.218 2.414.654.591.435.957 1.024 1.097 1.767zm-13.737 6.573a3.303 3.303 0 01-1.841-.528c-.542-.352-.97-.864-1.284-1.534-.314-.67-.472-1.485-.472-2.443 0-.97.159-1.788.478-2.455.322-.67.755-1.176 1.301-1.517a3.342 3.342 0 011.824-.517c.511 0 .931.087 1.261.261.33.17.591.377.784.62.193.238.343.464.449.676h.085v-4.352h2.063v11.636h-2.023v-1.375h-.125c-.106.212-.26.438-.46.676a2.533 2.533 0 01-.796.602c-.329.167-.744.25-1.244.25zm.574-1.687c.435 0 .807-.118 1.113-.352.307-.239.54-.57.699-.995.159-.424.239-.918.239-1.483 0-.564-.08-1.055-.239-1.471-.155-.417-.386-.74-.693-.972-.303-.23-.676-.347-1.119-.347-.459 0-.841.12-1.148.358-.307.24-.538.569-.693.99-.155.42-.233.9-.233 1.442 0 .546.078 1.032.233 1.46.159.425.392.76.699 1.006.31.243.691.364 1.142.364zm-11.506-3.579v5.113h-2.057v-8.727h1.966v1.483h.102c.201-.489.521-.877.961-1.165.443-.288.99-.432 1.642-.432.602 0 1.127.129 1.574.386.45.258.799.631 1.045 1.12.25.488.373 1.081.369 1.778v5.557h-2.056v-5.239c0-.583-.152-1.04-.455-1.369-.299-.33-.714-.494-1.244-.494-.36 0-.68.08-.961.238a1.66 1.66 0 00-.653.677c-.155.295-.233.653-.233 1.073zm-7.677 5.283c-.875 0-1.631-.181-2.268-.545a3.698 3.698 0 01-1.46-1.557c-.34-.674-.511-1.468-.511-2.38 0-.898.17-1.686.511-2.364a3.872 3.872 0 011.443-1.591c.618-.383 1.343-.574 2.177-.574a4.41 4.41 0 011.522.261c.481.17.906.436 1.273.796.371.36.663.818.875 1.375.212.553.318 1.212.318 1.977v.63h-7.153v-1.386h5.182a2.211 2.211 0 00-.256-1.05 1.863 1.863 0 00-.699-.734 1.962 1.962 0 00-1.034-.267c-.42 0-.79.103-1.108.307-.318.2-.566.466-.744.796a2.27 2.27 0 00-.267 1.074v1.21c0 .507.092.943.278 1.306.186.36.445.637.778.83.334.19.724.284 1.171.284.299 0 .57-.041.812-.125a1.8 1.8 0 00.631-.38c.178-.167.313-.374.404-.62l1.92.216a2.99 2.99 0 01-.693 1.33 3.377 3.377 0 01-1.296.875c-.526.204-1.128.306-1.806.306zm-9.848-.17v-8.727h1.994v1.454h.09c.16-.504.433-.892.819-1.165.39-.276.835-.414 1.335-.414.114 0 .24.005.38.017.145.007.264.02.359.04v1.891a2.162 2.162 0 00-.415-.079 3.819 3.819 0 00-.54-.04c-.375 0-.712.082-1.011.244a1.79 1.79 0 00-.699.665c-.17.284-.256.612-.256.983v5.131h-2.056zM83.87 11.864v-1.767h9.285v1.767h-3.597v9.869h-2.09v-9.87H83.87zm-6.418 10.022c-.686 0-1.3-.176-1.841-.528-.542-.352-.97-.864-1.284-1.534-.315-.67-.472-1.485-.472-2.443 0-.97.16-1.788.477-2.455.323-.67.756-1.176 1.302-1.517a3.344 3.344 0 011.823-.517c.512 0 .932.087 1.262.261.33.17.59.377.784.62.193.238.343.464.449.676h.085v-4.352H82.1v11.636h-2.023v-1.375h-.125c-.106.212-.26.438-.46.676a2.519 2.519 0 01-.796.602c-.33.167-.744.25-1.244.25zm.574-1.687c.435 0 .806-.118 1.113-.352.307-.239.54-.57.7-.995.158-.424.238-.918.238-1.483 0-.564-.08-1.055-.239-1.471-.155-.417-.386-.74-.693-.972-.303-.23-.676-.347-1.12-.347-.458 0-.84.12-1.147.358-.307.24-.538.569-.693.99a4.15 4.15 0 00-.233 1.442c0 .546.078 1.032.233 1.46.159.425.392.76.699 1.006.31.243.69.364 1.142.364zm-5.928-10.102v11.636h-2.057V10.097h2.057zm-8.401 11.636v-8.727h1.995v1.454h.09c.16-.504.433-.892.819-1.165.39-.276.835-.414 1.335-.414.114 0 .24.005.38.017.145.007.264.02.359.04v1.891a2.162 2.162 0 00-.415-.079 3.819 3.819 0 00-.54-.04c-.375 0-.712.082-1.011.244a1.79 1.79 0 00-.699.665c-.17.284-.256.612-.256.983v5.131h-2.057zm-5.927.17c-.852 0-1.591-.187-2.216-.562a3.82 3.82 0 01-1.455-1.574c-.34-.674-.51-1.462-.51-2.364 0-.901.17-1.69.51-2.369a3.812 3.812 0 011.455-1.58c.625-.375 1.364-.562 2.216-.562.852 0 1.59.188 2.216.563a3.775 3.775 0 011.449 1.58c.344.677.517 1.467.517 2.368 0 .902-.173 1.69-.517 2.364a3.782 3.782 0 01-1.45 1.574c-.624.375-1.363.562-2.215.562zm.011-1.647c.462 0 .849-.127 1.16-.381.31-.258.541-.602.693-1.034a4.24 4.24 0 00.233-1.443c0-.534-.078-1.017-.233-1.45-.152-.435-.383-.781-.694-1.039-.31-.258-.697-.386-1.159-.386-.473 0-.867.129-1.181.386-.311.258-.544.604-.7 1.04a4.355 4.355 0 00-.227 1.449c0 .53.076 1.011.228 1.443.155.432.388.776.698 1.034.315.254.709.38 1.182.38zm-16.497 1.477L38 10.097h2.267l2.097 8.55h.108l2.238-8.55h2.063l2.244 8.556h.102l2.097-8.556h2.267l-3.284 11.636h-2.08l-2.33-8.165h-.09l-2.335 8.165h-2.08z" fill="#191919"/></g><defs><clipPath id="clip0_15_43"><path fill="#fff" d="M0 0h136.33v32H0z"/></clipPath></defs></svg>